<?xml version="1.0" encoding="utf-8"?>
<!-- Generator: Adobe Illustrator 22.1.0, SVG Export Plug-In . SVG Version: 6.00 Build 0)  -->
<svg version="1.1" id="Calque_1" xmlns="http://www.w3.org/2000/svg" xmlns:xlink="http://www.w3.org/1999/xlink" x="0px" y="0px"
	 viewBox="0 0 90.3 129.2" style="enable-background:new 0 0 90.3 129.2;" xml:space="preserve">
<style type="text/css">
	.st0{fill:#EDD9A4;}
	.st1{fill:#BCB191;}
	.st2{fill:#FFF5D6;}
	.st3{font-family:'Monaco';}
	.st4{font-size:18.8744px;}
	.st5{fill:#DE575B;}
</style>
<g>
	<polygon class="st0" points="37.7,121.4 35.7,125.3 31.4,122.1 28.5,123.5 26.6,120.8 22.2,125.4 19.5,120.7 14.6,123.5 
		11.5,120.9 9.4,127 7.2,123 5.3,125.3 3.6,121 0.8,124.9 0.8,1.5 1.8,1.5 4.7,5.9 7.8,2 10.8,7.4 13.9,0.8 15.5,4.3 17.5,0.8 
		19.5,5.6 24.4,4.6 26,9.7 28.8,4.3 31.5,6.6 35.3,4.5 39.9,6.9 45.5,4.4 46.5,7.7 52.8,2.9 54.4,5.6 56.8,4.5 60.6,6.5 62.3,2.8 
		64.4,6.3 68.3,1 70,4.4 73.3,3 74.3,5.1 75.7,1 89.5,14.8 89.5,116 88,115.9 82.2,119.6 80.2,113.4 77.9,119.8 75,117.5 
		71.2,123.2 69.8,119.9 68,125.3 64.6,123.5 62.6,126.8 59.5,120.9 56.1,125.2 50.6,123.3 48.7,120.7 44.4,124.6 40.9,123.5 
		39.3,127.3 	"/>
	<path class="st1" d="M75.9,2L89,15.1v100.4l-1.2-0.1l-5.4,3.4l-2.3-7l-2.6,7.1l-2.8-2.1l-3.6,5.3l-1.5-3.7l-2,6.1l-3.3-1.7
		l-1.8,2.9l-1.2-2.3l-1.9-3.5l-3.6,4.6l-5.1-1.7l-2-2.9l-4.5,4.1l-3.6-1.2l-1.3,2.9l-1.5-5.8l-2.3,4.6l-4.1-3.1l-2.8,1.4l-2-2.9
		l-4.3,4.6l-2.6-4.6l-5.1,2.9l-3.3-2.9l-2,5.8l-2-3.6l-1.8,2.2L3.7,120l-2.3,3.3V2h0.2l3.2,4.8l3.1-3.8l3.1,5.6L13.9,2l1.5,3.5
		l2-3.5l1.8,4.2l4.8-1l1.8,5.9l3.1-6l2.6,2.2l3.8-2.2l4.6,2.4l5.3-2.4l1.1,3.5l6.4-4.9l1.5,2.6l2.6-1.1l4.1,2.2l1.5-3.3l2,3.3
		L68.2,2l1.5,3.1l3.3-1.4l1.3,2.8L75.9,2 M13.9-0.5l-0.9,2l-2.2,4.8L8.6,2.4L7.9,1.1L7,2.3L4.8,5L2.4,1.4L2.1,1H1.5H1.3h-1v1v121.3
		v3.1l1.8-2.6l1.3-1.8l1.1,2.7l0.6,1.5l1.1-1.3l0.9-1l1.3,2.4l1.1,1.9l0.7-2.1l1.6-4.4l2.2,1.9l0.5,0.5l0.6-0.4l4.2-2.4l2.1,3.7
		l0.7,1.2l0.9-1l3.5-3.7l1.3,1.9l0.5,0.7l0.8-0.4l2.3-1.1l3.6,2.7l1,0.7l0.5-1.1l1.1-2.2l0.9,3.3l0.7,2.8l1.2-2.6l0.9-2.1L44,125
		l0.5,0.2l0.4-0.4l3.7-3.3l1.4,2l0.2,0.3l0.3,0.1l5.1,1.7l0.7,0.2l0.4-0.6l2.6-3.4l1.1,2.2l1.2,2.3l0.8,1.6l0.9-1.5l1.3-2.1l2.5,1.3
		l1,0.5l0.4-1.1l1.2-3.6l0.5,1.2l0.7,1.7l1-1.5l3-4.4l2,1.5l1.1,0.8l0.5-1.3l1.6-4.4l1.4,4.2l0.4,1.2l1.1-0.7l5.1-3.2l0.8,0.1
		l1.1,0.1v-1.1V15.1v-0.4l-0.3-0.3L76.6,1.3l-1.1-1.1L75,1.6l-0.8,2.2L74,3.2l-0.4-0.9l-0.9,0.4l-2.4,1l-1.1-2.2L68.4,0l-1,1.3
		l-2.9,4.1l-1.3-2l-1-1.6l-0.8,1.7l-1.1,2.4l-3.1-1.7l-0.4-0.2l-0.4,0.2l-1.7,0.8l-1.1-1.8l-0.6-1L52,2.9l-5.3,4l-0.7-2.1l-0.3-1.1
		l-1,0.5l-4.8,2.2l-4.2-2.2l-0.5-0.3l-0.5,0.3L31.6,6l-2-1.7l-1-0.8L28,4.6l-1.9,3.8L25,4.9L24.8,4l-0.9,0.2l-4,0.9l-1.5-3.5
		l-0.8-1.8l-1,1.7l-1.1,1.8l-0.7-1.7L13.9-0.5L13.9-0.5z"/>
</g>
<polygon class="st2" points="5.5,124.3 7.2,122.2 9.3,125.8 11.3,120 14.6,122.9 19.7,120 22.3,124.6 26.6,120 28.7,122.9 
	31.5,121.5 35.6,124.6 37.9,120 39.4,125.8 40.7,122.9 44.3,124.1 48.8,120 50.9,122.9 56,124.6 59.5,120 61.4,123.5 62.6,125.8 
	64.4,122.9 67.7,124.6 69.7,118.5 71.3,122.1 74.8,116.8 77.7,119 80.2,111.8 82.5,118.8 87.9,115.4 89,115.5 89,15.1 75.9,2 
	74.3,6.5 73.1,3.7 69.7,5.1 68.2,2 64.4,7.2 62.3,3.9 60.8,7.2 56.7,5.1 54.2,6.2 52.7,3.7 46.3,8.5 45.2,5.1 39.9,7.5 35.3,5.1 
	31.5,7.2 1.3,85.8 1.3,123.3 3.7,120 "/>
<polygon class="st1" points="75.9,2 75.9,15.1 89,15.1 "/>
<text transform="matrix(1 0 0 1 27.3152 116.8174)" class="st1 st3 st4">$$$</text>
<g>
	<path class="st5" d="M72.6,76.7c-0.5,3.6-2.9,6.7-6.3,8.1c-1.7,0.7-3.5,0.9-5.3,0.7c-1.7-0.2-3.5-0.8-5.3-1.8
		c-2.5-1.4-5-3.5-7.9-6.7c4.6-5.6,7.3-10.7,8.4-15.3c0.5-2.1,0.6-4.1,0.3-5.9c-0.3-1.7-0.9-3.3-1.9-4.7C52.6,48,49,46.2,45,46.2
		s-7.6,1.9-9.8,4.9c-1,1.4-1.6,3-1.9,4.7c-0.3,1.8-0.2,3.8,0.3,5.9c1,4.6,3.9,9.8,8.4,15.4c-2.8,3.2-5.4,5.3-7.9,6.7
		c-1.8,1-3.5,1.6-5.3,1.8c-1.9,0.2-3.7-0.1-5.3-0.7c-3.4-1.4-5.8-4.5-6.3-8.1c-0.2-1.7-0.1-3.5,0.6-5.4c0.2-0.7,0.6-1.4,0.9-2.2
		c0.5-1.1,1-2.3,1.6-3.5l0.1-0.1c4.8-10.3,9.9-20.8,15.2-31.1L36,34c0.6-1,1.1-2.1,1.7-3.2c0.6-1.1,1.2-2.1,1.9-3
		c1.5-1.7,3.4-2.6,5.5-2.6s4.1,0.9,5.5,2.6c0.8,0.9,1.4,1.9,1.9,3c0.6,1,1.1,2.1,1.7,3.2l0.2,0.4c5.3,10.3,10.4,20.8,15.2,31.2v0.1
		c0.6,1.1,1,2.4,1.6,3.5c0.3,0.8,0.7,1.5,0.9,2.2C72.7,73.2,72.9,74.9,72.6,76.7L72.6,76.7z M45,73.4c-3.7-4.7-6.2-9.1-7-12.9
		c-0.3-1.6-0.4-3-0.2-4.2c0.1-1.1,0.6-2.1,1.1-2.9c1.3-1.9,3.5-3,6.1-3s4.8,1.1,6.1,3c0.6,0.8,1,1.8,1.1,2.9
		c0.2,1.2,0.1,2.7-0.2,4.2C51.1,64.2,48.7,68.7,45,73.4L45,73.4z M76.2,69.8c-0.3-0.8-0.7-1.7-1-2.5c-0.6-1.2-1.1-2.4-1.6-3.5
		l-0.1-0.1c-4.8-10.4-9.9-20.9-15.3-31.3L58,32c-0.6-1-1.1-2.1-1.7-3.3c-0.7-1.2-1.4-2.6-2.5-3.8c-2.2-2.8-5.4-4.3-8.8-4.3
		c-3.5,0-6.6,1.5-8.9,4.2c-1,1.2-1.8,2.6-2.5,3.8c-0.6,1.1-1.1,2.2-1.7,3.3l-0.2,0.4c-5.3,10.4-10.5,20.9-15.3,31.3l-0.1,0.1
		c-0.5,1.1-1,2.3-1.6,3.5c-0.3,0.8-0.7,1.6-1,2.5c-0.9,2.6-1.2,5-0.8,7.5c0.8,5.2,4.2,9.6,9,11.5c1.8,0.8,3.7,1.1,5.6,1.1
		c0.6,0,1.2-0.1,1.8-0.1c2.3-0.3,4.6-1,6.9-2.4c2.8-1.6,5.5-3.9,8.6-7.2c3,3.3,5.8,5.6,8.6,7.2c2.3,1.3,4.6,2.1,6.9,2.4
		c0.6,0.1,1.2,0.1,1.8,0.1c1.9,0,3.9-0.3,5.6-1.1c4.8-1.9,8.2-6.4,9-11.5C77.4,74.8,77.1,72.4,76.2,69.8L76.2,69.8z"/>
</g>
</svg>
