<?xml version="1.0" encoding="utf-8"?>
<!-- Generator: Adobe Illustrator 22.1.0, SVG Export Plug-In . SVG Version: 6.00 Build 0)  -->
<svg version="1.1" id="Calque_1" xmlns="http://www.w3.org/2000/svg" xmlns:xlink="http://www.w3.org/1999/xlink" x="0px" y="0px"
	 viewBox="0 0 366 394.6" style="enable-background:new 0 0 366 394.6;" xml:space="preserve">
<style type="text/css">
	.st0{fill:#E0565B;}
</style>
<g>
	<path class="st0" d="M293,282.4c-1.9,14.3-11.6,26.8-25.1,32.3c-6.6,2.8-13.8,3.6-21,2.8c-6.9-0.8-13.8-3-21-7.2
		c-9.9-5.5-19.9-14.1-31.4-26.8c18.2-22.3,29.2-42.8,33.4-60.9c1.9-8.6,2.2-16.3,1.4-23.4c-1.1-6.9-3.6-13.2-7.4-18.8
		c-8.5-12.4-22.9-19.6-38.9-19.6s-30.3,7.4-38.9,19.6c-3.9,5.5-6.3,11.9-7.4,18.8c-1.1,7.2-0.8,15.2,1.4,23.4
		c4.1,18.2,15.4,38.9,33.4,61.2c-11.3,12.7-21.5,21.2-31.4,26.8c-7.2,4.1-14.1,6.3-21,7.2c-7.4,0.8-14.6-0.3-21-2.8
		C84.5,309.5,74.9,297,73,282.7c-0.8-6.9-0.3-13.8,2.5-21.5c0.8-2.8,2.2-5.5,3.6-8.8c1.9-4.4,4.1-9.1,6.3-13.8l0.3-0.5
		c19-41.1,39.4-83,60.7-123.8l0.8-1.7c2.2-4.1,4.4-8.5,6.6-12.7c2.2-4.4,4.7-8.6,7.7-12.1c5.8-6.6,13.5-10.2,22.1-10.2
		c8.5,0,16.3,3.6,22.1,10.2c3,3.6,5.5,7.7,7.7,12.1c2.2,4.1,4.4,8.5,6.6,12.7l0.8,1.7c21,41.1,41.4,83,60.4,124.1v0.3
		c2.2,4.4,4.1,9.4,6.3,13.8c1.4,3.3,2.8,6.1,3.6,8.8C293.3,268.4,294.1,275.3,293,282.4L293,282.4z M183,269.5
		c-14.9-18.8-24.5-36.4-27.9-51.3c-1.4-6.3-1.7-11.9-0.8-16.8c0.6-4.4,2.2-8.3,4.4-11.6c5.2-7.4,14.1-12.1,24.3-12.1
		s19.3,4.4,24.3,12.1c2.2,3.3,3.9,7.2,4.4,11.6c0.8,5,0.6,10.8-0.8,16.8C207.5,232.8,197.9,250.4,183,269.5L183,269.5z M307.4,255.1
		c-1.4-3.3-2.8-6.9-4.1-9.9c-2.2-5-4.4-9.7-6.3-14.1l-0.3-0.3c-19-41.4-39.4-83.3-61-124.7l-0.8-1.7c-2.2-4.1-4.4-8.6-6.6-13
		c-2.8-5-5.5-10.2-9.9-15.2c-8.8-11-21.5-17.1-35-17.1c-13.8,0-26.2,6.1-35.3,16.6c-4.1,5-7.2,10.2-9.9,15.2
		c-2.2,4.4-4.4,8.8-6.6,13l-0.8,1.7c-21.2,41.4-41.9,83.3-61,124.7l-0.3,0.6c-1.9,4.4-4.1,9.1-6.3,14.1c-1.4,3-2.8,6.3-4.1,9.9
		c-3.6,10.2-4.7,19.9-3.3,29.8c3,20.7,16.8,38.1,35.9,45.8c7.2,3,14.6,4.4,22.3,4.4c2.2,0,5-0.3,7.2-0.6c9.1-1.1,18.5-4.1,27.6-9.4
		c11.3-6.3,22.1-15.4,34.2-28.7c12.1,13.2,23.2,22.3,34.2,28.7c9.1,5.2,18.5,8.3,27.6,9.4c2.2,0.3,5,0.6,7.2,0.6
		c7.7,0,15.4-1.4,22.3-4.4c19.3-7.7,32.8-25.4,35.9-45.8C312.1,275,311,265.3,307.4,255.1L307.4,255.1z"/>
</g>
</svg>
