<?xml version="1.0" encoding="utf-8"?>
<!-- Generator: Adobe Illustrator 22.1.0, SVG Export Plug-In . SVG Version: 6.00 Build 0)  -->
<svg version="1.1" id="Calque_1" xmlns="http://www.w3.org/2000/svg" xmlns:xlink="http://www.w3.org/1999/xlink" x="0px" y="0px"
	 viewBox="0 0 213.7 213.9" style="enable-background:new 0 0 213.7 213.9;" xml:space="preserve">
<style type="text/css">
	.st0{fill:#3069AD;}
</style>
<g>
	<path class="st0" d="M50.5,42.6c37.5,0,75,0,112.6,0c0.1,0.1,0.2,0.2,0.2,0.2c4,0.5,7.8,4.5,7.8,9.8c-0.1,36.2-0.1,72.5,0,108.7
		c0,5-3.8,10-10,9.9c-15.8-0.1-31.6,0-47.4,0c-20.5,0-41,0-61.6,0c-5.4,0-9.6-4-9.6-9.3c0-36.7,0-73.3,0-110c0-3.9,2-6.7,5.5-8.4
		C48.9,43.1,49.7,42.9,50.5,42.6z M92.8,91c0,20.4,0,40.7,0,61c6.3,0,12.6,0,19,0c0-0.5,0-1,0-1.5c0-10,0-20,0-30
		c0-1.9,0.2-3.9,0.6-5.8c1.3-6.2,5.5-9.1,11.9-8.6c4.3,0.4,6.9,2.4,7.9,6.6c0.6,2.5,0.9,5,0.9,7.6c0.1,10.1,0,20.2,0,30.4
		c0,0.5,0,0.9,0,1.4c6.4,0,12.6,0,18.9,0c0-0.4,0.1-0.8,0.1-1.1c0-10.8,0-21.5,0-32.3c0-4.8-0.2-9.5-1.4-14.2
		c-1.5-5.8-4.3-10.5-10-13c-3.5-1.6-7.3-2.1-11.1-2.1c-7.8-0.1-13.8,3-18.1,9.5c-0.1,0.1-0.2,0.2-0.6,0.5c0-2.9,0-5.6,0-8.4
		C104.8,91,98.8,91,92.8,91z M61.7,91c0,20.4,0,40.7,0,61c6.3,0,12.6,0,18.9,0c0-20.4,0-40.7,0-61C74.3,91,68,91,61.7,91z
		 M82.2,71.4c0-6-5-11-11-11c-6.1,0-11.1,5-11.1,11c0,6,5,11,11,11C77.2,82.5,82.2,77.5,82.2,71.4z"/>
</g>
</svg>
