<?xml version="1.0" encoding="utf-8"?>
<!-- Generator: Adobe Illustrator 22.1.0, SVG Export Plug-In . SVG Version: 6.00 Build 0)  -->
<svg version="1.1" id="Calque_1" xmlns="http://www.w3.org/2000/svg" xmlns:xlink="http://www.w3.org/1999/xlink" x="0px" y="0px"
	 viewBox="0 0 225.6 225.3" style="enable-background:new 0 0 225.6 225.3;" xml:space="preserve">
<style type="text/css">
	.st0{fill:#3965AB;}
	.st1{fill:#768AC0;}
	.st2{fill:#7186BE;}
	.st3{fill:#8D9DCB;}
	.st4{fill:#5E7AB7;}
	.st5{fill:#A7B2D7;}
	.st6{fill:#3966AB;}
</style>
<g id="SZ02RO.tif">
	<g>
		<path class="st0" d="M124.8,25.7c43.5,5.9,76.1,43.4,75.9,87.3c-0.2,44-33,81.3-76.4,86.9C76,206,30.6,171.5,25.8,124.7
			c-0.3-3.3-0.7-6.7-1-10c0-1.3,0-2.7,0-4c0.3-1.4,0.6-2.8,0.9-4.1c0-1.7,0-3.3,0-5c0.7-3.9,1.3-7.9,2.2-11.7
			c8.5-33.8,40.5-61.6,73.8-64.2c3-0.3,6.1-0.6,9.1-0.9c1.3,0,2.7,0,4,0c2.4,0.3,4.7,0.6,7.1,0.9C122.8,25.7,123.8,25.7,124.8,25.7z
			 M109.2,71.8c-7.8,0-15.7,0.1-23.5-0.1c-3.5-0.1-5.1,0.7-5,4.7c0.2,22.5,0,45,0.1,67.5c0,9.1,6.7,15.8,15.2,15.9
			c8.7,0.1,15.4-6.7,15.7-16c0.1-4.8,0.2-9.7,0-14.5c-0.1-2.8,0.7-3.8,3.6-3.7c5.7,0.2,11.3,0.2,17,0c15.1-0.4,26.7-12.5,26.6-27.5
			c-0.2-14.5-12.1-26.2-27.1-26.4C124.2,71.7,116.7,71.8,109.2,71.8z"/>
		<path class="st1" d="M24.8,114.8c0.3,3.3,0.7,6.7,1,10c-0.3,0-0.7,0-1,0C24.8,121.4,24.8,118.1,24.8,114.8z"/>
		<path class="st2" d="M101.7,25.7c0.2-0.3,0.2-0.6,0.1-0.9c3,0,6,0,9,0C107.8,25.1,104.7,25.4,101.7,25.7z"/>
		<path class="st2" d="M121.9,25.7c-2.4-0.3-4.7-0.6-7.1-0.9c2.3,0,4.7,0,7,0C121.8,25.1,121.8,25.4,121.9,25.7z"/>
		<path class="st3" d="M24.8,101.8c0.3,0,0.6-0.1,0.9-0.1c0,1.7,0,3.3,0,5c-0.3,0-0.6,0.1-0.9,0.1C24.8,105.1,24.8,103.4,24.8,101.8
			z"/>
		<path class="st4" d="M24.8,106.8c0.3,0,0.6-0.1,0.9-0.1c-0.3,1.4-0.6,2.8-0.9,4.1C24.8,109.4,24.8,108.1,24.8,106.8z"/>
		<path class="st5" d="M121.9,25.7c-0.1-0.3-0.1-0.6-0.1-0.9c1,0,2,0,3,0c-0.1,0.3-0.1,0.6,0,0.9C123.8,25.7,122.8,25.7,121.9,25.7z
			"/>
		<path class="st6" d="M103.7,121.3c0,7.2,0,14.3,0,21.5c0,5.5-2.8,8.8-7.3,8.9c-4.7,0.1-7.7-3.2-7.7-9c0-19.7,0.1-39.3-0.1-59
			c0-3.4,1.2-4.1,4.3-4.1c12.8,0.2,25.7,0,38.5,0.1c11.1,0.1,19.3,8.1,19.4,18.6c0.1,10.6-7.8,18.8-18.8,19.3
			c-5.7,0.2-11.3-0.1-17,0.1c-2.7,0.1-3.3-1.1-3.4-3.5c-0.5-11.5-0.6-11.5,10.8-11.5c2.8,0,5.8,0.5,8.5-0.2c1.8-0.4,3.3-2.4,4.9-3.7
			c-1.5-1.3-3-3.8-4.7-3.8c-8-0.4-16-0.1-24-0.2c-3.1,0-3.5,1.7-3.4,4.2C103.8,106.4,103.7,113.9,103.7,121.3z"/>
	</g>
</g>
</svg>
