<?xml version="1.0" encoding="utf-8"?>
<!-- Generator: Adobe Illustrator 23.0.3, SVG Export Plug-In . SVG Version: 6.00 Build 0)  -->
<svg version="1.1" id="Artwork" xmlns="http://www.w3.org/2000/svg" xmlns:xlink="http://www.w3.org/1999/xlink" x="0px" y="0px"
	 viewBox="0 0 298.5 247.7" style="enable-background:new 0 0 298.5 247.7;" xml:space="preserve">
<style type="text/css">
	.st0{fill:#5D21D2;}
</style>
<g>
	<g>
		<g>
			<path class="st0" d="M166.3,111.4c-1.3-1.3-1.3-3.5,0-4.8l24.8-24.8c1.3-1.3,3.5-1.3,4.8,0l50.1,50.1c1.7,1.8,2.7,4.1,2.7,6.7
				c0,2.7-1.1,5.1-2.8,6.8l-51.4,51.4c-0.6,0.6-1.5,1-2.4,1h-49.6c-1.9,0-3.4-1.5-3.4-3.4c0-1,0.4-1.9,1.1-2.5l51-51
				c0.6-0.6,1-1.5,1-2.4c0-0.9-0.3-1.7-1-2.4L166.3,111.4z"/>
			<path class="st0" d="M132.2,136.3c1.3,1.3,1.3,3.5,0,4.8l-24.8,24.8c-1.3,1.3-3.5,1.3-4.8,0l-50.1-50.1c-1.7-1.8-2.7-4.1-2.7-6.7
				c0-2.7,1.1-5.1,2.8-6.8L104,50.8c0.6-0.6,1.5-1,2.4-1l49.6,0c1.9,0,3.4,1.5,3.4,3.4c0,1-0.4,1.9-1.1,2.5l-51,51
				c-0.6,0.7-1,1.5-1,2.4c0,0.9,0.3,1.7,1,2.4C107.3,111.4,132.2,136.3,132.2,136.3z"/>
		</g>
	</g>
</g>
</svg>
