<?xml version="1.0" encoding="utf-8"?>
<!-- Generator: Adobe Illustrator 22.1.0, SVG Export Plug-In . SVG Version: 6.00 Build 0)  -->
<svg version="1.1" id="UBER" xmlns="http://www.w3.org/2000/svg" xmlns:xlink="http://www.w3.org/1999/xlink" x="0px" y="0px"
	 viewBox="0 0 700.5 706.3" style="enable-background:new 0 0 700.5 706.3;" xml:space="preserve">
<path d="M592.8,493.1c0,57.8-46.8,104.6-104.6,104.6H210.3c-57.8,0-104.6-46.8-104.6-104.6V215.2c0-57.8,46.8-104.6,104.6-104.6
	h277.8c57.8,0,104.6,46.8,104.6,104.6V493.1z M349.1,207.6c-77.1,0-140.2,60.2-144.7,136.2c17.3,0,100.4,0,102.3,0
	c2.2,0,2.5-2.5,2.5-2.5v-20.4c0-4.2,3.4-7.5,7.5-7.5h66.1c4.2,0,7.5,3.4,7.5,7.5V387c0,4.2-3.4,7.5-7.5,7.5h-66.1
	c-4.2,0-7.5-3.4-7.5-7.5v-22.6c0,0-0.1-2.5-2.4-2.5c-2,0-84.9,0-102.4,0c4.9,75.6,67.7,135.5,144.6,135.5
	c80,0,144.9-64.9,144.9-144.9C494,272.5,429.1,207.6,349.1,207.6z"/>
</svg>
