<svg width="242" height="193" viewBox="0 0 242 193" fill="none" xmlns="http://www.w3.org/2000/svg">
<path fill-rule="evenodd" clip-rule="evenodd" d="M141.038 79.7053C139.436 77.9923 139.436 75.2108 141.038 73.4978L171.123 41.2887C172.729 39.5704 175.333 39.5704 176.941 41.2887L237.73 106.326C239.76 108.601 241.015 111.674 241.015 115.072C241.015 118.524 239.725 121.645 237.633 123.934L175.234 190.707C174.46 191.535 173.417 192.002 172.326 192.002H112.098C109.836 192.002 108 190.037 108 187.617C108 186.329 108.517 185.173 109.339 184.372L171.182 118.159C171.97 117.321 172.382 116.2 172.384 115.067C172.382 113.929 171.97 112.807 171.182 111.97L141.038 79.7053Z" fill="#945DEF"/>
<path fill-rule="evenodd" clip-rule="evenodd" d="M99.9778 112.296C101.58 114.009 101.58 116.791 99.9778 118.504L69.8924 150.713C68.2862 152.431 65.6819 152.431 64.0747 150.713L3.285 85.6756C1.255 83.4004 0 80.3272 0 76.9297C0 73.4775 1.29 70.3569 3.382 68.0681L65.7813 1.295C66.5553 0.466998 67.5979 0 68.6891 0H128.917C131.18 0 133.015 1.96501 133.015 4.38501C133.015 5.67301 132.498 6.829 131.677 7.63L69.8332 73.8428C69.0454 74.6809 68.6331 75.8021 68.631 76.935C68.6331 78.0731 69.0454 79.1944 69.8332 80.0314L99.9778 112.296Z" fill="#945DEF"/>
</svg>